<svg xmlns="http://www.w3.org/2000/svg" viewBox="0 0 533.3 90.6"><path d="M42.1 0H26.8L0 90.6C20.4 71.3 42.1 0 42.1 0Zm22.4 0H49.2L22.4 90.5C42.9 71.3 64.5 0 64.5 0ZM87 0H71.7L44.9 90.5C65.3 71.3 87 0 87 0Zm22.4 0H94.1L67.3 90.5C87.7 71.3 109.4 0 109.4 0Zm34.3 65.5c.9 1.1 1.4 1.7 1.4 1.7s2.1 3.7 3.7 4.9c1.6 1.3 3.5 2.2 5.6 2.8 2.2.6 4.5.9 7.1.9s3.4-.1 5.3-.4c1.9-.3 3.7-.8 5.4-1.6 1.7-.8 3.2-1.9 4.4-3.3 1.2-1.4 1.9-3.2 2.1-5.4.2-2.3-.4-4.2-1.8-5.7-1.3-1.5-3.1-2.7-5.4-3.7-2.3-1-4.9-1.9-7.8-2.5-2.9-.7-5.9-1.5-8.9-2.4-3.1-.8-6.1-1.8-8.9-3-2.9-1.2-5.4-2.7-7.6-4.5-2.2-1.9-3.9-4.2-5.2-6.9-1.2-2.7-1.7-6.1-1.4-10.2.4-4.5 1.6-8.3 3.7-11.6 2.1-3.3 4.7-6 7.9-8.2 3.1-2.2 6.6-3.8 10.5-4.8C157.7.5 161.5 0 165.2 0s8.6.5 12.5 1.5c4 1 7.4 2.6 10.4 4.9 2.9 2.3 5.2 5.1 6.8 8.7 1.6 3.5 1.6 15.4 1.2 20.4l-17.2-7.6c0-2.6-.3-4.7-1.1-6.4-.8-1.7-1.8-3-3.3-4-1.4-1-3.1-1.7-5-2.1-1.9-.4-4-.6-6.2-.6s-3 .2-4.5.5-2.9.9-4.2 1.7c-1.3.8-2.3 1.9-3.2 3.1-.9 1.2-1.4 2.8-1.5 4.5 0 1.7 0 3.1.6 4.1.6 1.1 1.7 2 3.5 2.9 1.8.8 4.3 1.7 7.5 2.7 3.2.9 7.3 2.1 12.5 3.4 1 .2 2.3.6 3.9 1s3.3 1.1 5.1 1.8c1.8.8 3.5 1.8 5.3 3 1.7 1.2 3.3 2.7 4.7 4.5 1.4 1.8 2.4 3.9 3.2 6.3.8 2.4 1 5.3.8 8.5-.3 4-1.3 7.6-3.1 11-1.8 3.4-4.2 6.3-7.3 8.8-3.1 2.5-6.9 4.4-11.4 5.8-4.5 1.4-9.5 2.1-15.3 2.1s-9-.6-13.3-1.8c-4.3-1.2-8-3.1-11.1-5.6-3.1-2.5-5.5-5.7-7.1-9.6-1.7-3.9-2.3-8.5-1.8-13.8l17.4 5.7Zm173.1 23h16.7l2.2-28.2c.2-2.8.7-5.3 1.4-7.8s1.8-4.6 3.3-6.4c1.4-1.8 3.2-3.2 5.4-4.3 2.2-1 4.8-1.6 7.9-1.6l2.3.2h.4v-.7c.1 0 4.4-14.8 4.4-14.8-1.1-.4-2.3-.6-3.6-.6-2 0-4.1.3-6.1.9-2.1.7-4 1.6-5.8 2.7-1.8 1.2-3.4 2.6-4.9 4.2-1.5 1.7-2.6 3.4-3.6 5.4h-.2l.9-15.4-15.8 9-4.9 57.4Zm46.8 0h16.7L386.4 2l-16.1 10.4-6.7 76.1Zm126.2-38c.1-1.2.5-2.6 1.1-4.1.5-1.5 1.4-3 2.6-4.4 1.2-1.4 2.6-2.5 4.5-3.5 1.8-.9 4.1-1.4 6.7-1.4 4.1 0 7 1.1 8.8 3.4 1.8 2.2 2.1 3.3 3.1 7.6l-26.8 2.3Zm43.4 7.6c.3-3.6.1-7.2-.4-10.6-.7-4.4-2.2-8.4-4.5-11.9-2.2-3.5-5.1-6.2-8.8-8.3-3.6-2.1-8.1-3.1-13.3-3.1s-8.9.8-12.8 2.5c-3.9 1.7-7.4 4-10.4 7-2.9 3-5.3 6.5-7.1 10.5-1.8 4-2.9 8.4-3.3 13.1-.3 4.8 0 9.3 1.2 13.3 1.1 4 2.9 7.5 5.3 10.4 2.4 2.9 5.5 5.2 9.2 6.8 3.7 1.6 8 2.4 12.8 2.4 6.9 0 12.9-1.7 18-5s9.1-8.6 12-16.1l-15.6 1.8c-.9 1.3-2.2 2.5-4 3.7-2.6 1.7-5.5 2.6-8.9 2.6s-8.2-1.3-10.5-3.8c-2.3-2.6-3.4-6.6-3.2-12.1 0 0 44.1-2.2 44.2-3.3Zm-269.5-7.6c.1-1.2.5-2.6 1-4.1.6-1.5 1.4-3 2.6-4.4 1.2-1.4 2.7-2.5 4.5-3.5 1.8-.9 4.1-1.4 6.7-1.4 4.1 0 7 1.1 8.8 3.4 1.8 2.2 2.1 3.3 3.1 7.6l-26.8 2.3Zm43.4 7.6c.2-3.6 0-7.2-.5-10.6-.7-4.4-2.2-8.4-4.4-11.9s-5.2-6.2-8.8-8.3c-3.7-2.1-8.1-3.1-13.3-3.1s-8.9.8-12.8 2.5c-3.9 1.7-7.4 4-10.4 7-2.9 3-5.4 6.5-7.2 10.5-1.8 4-2.9 8.4-3.2 13.1-.4 4.8 0 9.3 1.2 13.3 1.1 4 2.9 7.5 5.4 10.4 2.4 2.9 5.5 5.2 9.2 6.8 3.7 1.6 8 2.4 12.7 2.4 6.9 0 12.9-1.7 18-5s9.1-8.6 12.1-16.1l-15.6 1.8c-.9 1.3-2.2 2.5-4 3.7-2.6 1.7-5.5 2.6-8.9 2.6s-8.2-1.3-10.5-3.8c-2.3-2.6-3.4-6.6-3.2-12.1 0 0 44.1-2.2 44.2-3.3Zm111.8-31.9c-4.7 4.9-11.9 5.3-17 2.8l-4.4 59.6h16.7l4.7-62.3m36.5-21.8L439.1 15l-1.2 11.1h-6.1l-4.9 11.5H437l-2.8 36.9c-.3 3.2 0 5.7.9 7.6.9 1.9 2.2 3.5 3.8 4.6 1.7 1.1 3.6 1.8 5.9 2.2 2.3.4 4.7.5 7.3.5s5.1-.1 5.1-.1l5.8-13.9c-1.6.3-3.3.5-5.2.5-2.8 0-4.7-.5-5.5-1.5-.8-1-1.2-2.9-.9-5.8l2.4-31h9.6l4.9-11.5h-13.6l.8-21.6Zm-222.8 0-16.4 10.4-1.1 11.1H209l-4.9 11.5h10.1l-2.9 36.9c-.2 3.2 0 5.7 1 7.6.9 1.9 2.1 3.5 3.8 4.6 1.7 1.1 3.7 1.8 6 2.2 2.3.4 4.7.5 7.3.5s5.1-.1 5.1-.1l5.8-13.9c-1.6.3-3.3.5-5.2.5-2.8 0-4.7-.5-5.5-1.5-.8-1-1.2-2.9-.9-5.8l2.4-31h9.6l4.9-11.5H232l.9-21.6Z" style="fill:#0066b3"/><path d="M420.7 14.4c-.3 5.2-4.9 9.3-10.4 9-5.5-.3-9.7-4.8-9.4-10 .3-5.2 4.9-9.3 10.4-9 5.5.3 9.7 4.8 9.4 10Z" style="fill-rule:evenodd;fill:#0066b3"/></svg>